<?xml version="1.0" encoding="utf-8" standalone="no"?>
<!DOCTYPE svg PUBLIC "-//W3C//DTD SVG 1.1//EN"
  "http://www.w3.org/Graphics/SVG/1.1/DTD/svg11.dtd">
<svg xmlns:xlink="http://www.w3.org/1999/xlink" width="792pt" height="504pt" viewBox="0 0 792 504" xmlns="http://www.w3.org/2000/svg" version="1.1">
 <metadata>
  <rdf:RDF xmlns:dc="http://purl.org/dc/elements/1.1/" xmlns:cc="http://creativecommons.org/ns#" xmlns:rdf="http://www.w3.org/1999/02/22-rdf-syntax-ns#">
   <cc:Work>
    <dc:type rdf:resource="http://purl.org/dc/dcmitype/StillImage"/>
    <dc:date>2025-11-30T20:10:39.024093</dc:date>
    <dc:format>image/svg+xml</dc:format>
    <dc:creator>
     <cc:Agent>
      <dc:title>Matplotlib v3.10.3, https://matplotlib.org/</dc:title>
     </cc:Agent>
    </dc:creator>
   </cc:Work>
  </rdf:RDF>
 </metadata>
 <defs>
  <style type="text/css">*{stroke-linejoin: round; stroke-linecap: butt}</style>
 </defs>
 <g id="figure_1">
  <g id="patch_1">
   <path d="M 0 504 
L 792 504 
L 792 0 
L 0 0 
z
" style="fill: #ffffff"/>
  </g>
  <g id="axes_1">
   <g id="patch_2">
    <path d="M 54.21125 461.68 
L 776.115517 461.68 
L 776.115517 26.88 
L 54.21125 26.88 
z
" style="fill: #ffffff"/>
   </g>
   <g id="PathCollection_1">
    <defs>
     <path id="mdaccd6d610" d="M 0 3.535534 
C 0.937635 3.535534 1.836992 3.163008 2.5 2.5 
C 3.163008 1.836992 3.535534 0.937635 3.535534 0 
C 3.535534 -0.937635 3.163008 -1.836992 2.5 -2.5 
C 1.836992 -3.163008 0.937635 -3.535534 0 -3.535534 
C -0.937635 -3.535534 -1.836992 -3.163008 -2.5 -2.5 
C -3.163008 -1.836992 -3.535534 -0.937635 -3.535534 0 
C -3.535534 0.937635 -3.163008 1.836992 -2.5 2.5 
C -1.836992 3.163008 -0.937635 3.535534 0 3.535534 
z
" style="stroke: #000000; stroke-opacity: 0.9; stroke-width: 0.5"/>
    </defs>
    <g clip-path="url(#pf864e4e24a)">
     <use xlink:href="#mdaccd6d610" x="87.02508" y="382.027207" style="fill: #1f77b4; fill-opacity: 0.9; stroke: #000000; stroke-opacity: 0.9; stroke-width: 0.5"/>
     <use xlink:href="#mdaccd6d610" x="139.438953" y="46.643636" style="fill: #1f77b4; fill-opacity: 0.9; stroke: #000000; stroke-opacity: 0.9; stroke-width: 0.5"/>
     <use xlink:href="#mdaccd6d610" x="191.884591" y="58.620854" style="fill: #1f77b4; fill-opacity: 0.9; stroke: #000000; stroke-opacity: 0.9; stroke-width: 0.5"/>
     <use xlink:href="#mdaccd6d610" x="209.37192" y="82.578357" style="fill: #1f77b4; fill-opacity: 0.9; stroke: #000000; stroke-opacity: 0.9; stroke-width: 0.5"/>
     <use xlink:href="#mdaccd6d610" x="261.846734" y="46.643636" style="fill: #1f77b4; fill-opacity: 0.9; stroke: #000000; stroke-opacity: 0.9; stroke-width: 0.5"/>
     <use xlink:href="#mdaccd6d610" x="384.342817" y="70.601139" style="fill: #1f77b4; fill-opacity: 0.9; stroke: #000000; stroke-opacity: 0.9; stroke-width: 0.5"/>
    </g>
   </g>
   <g id="PathCollection_2">
    <defs>
     <path id="m2acc4f0723" d="M 0 3.535534 
C 0.937635 3.535534 1.836992 3.163008 2.5 2.5 
C 3.163008 1.836992 3.535534 0.937635 3.535534 0 
C 3.535534 -0.937635 3.163008 -1.836992 2.5 -2.5 
C 1.836992 -3.163008 0.937635 -3.535534 0 -3.535534 
C -0.937635 -3.535534 -1.836992 -3.163008 -2.5 -2.5 
C -3.163008 -1.836992 -3.535534 -0.937635 -3.535534 0 
C -3.535534 0.937635 -3.163008 1.836992 -2.5 2.5 
C -1.836992 3.163008 -0.937635 3.535534 0 3.535534 
z
" style="stroke: #000000; stroke-opacity: 0.9; stroke-width: 0.5"/>
    </defs>
    <g clip-path="url(#pf864e4e24a)">
     <use xlink:href="#m2acc4f0723" x="498.133688" y="382.027207" style="fill: #ff7f0e; fill-opacity: 0.9; stroke: #000000; stroke-opacity: 0.9; stroke-width: 0.5"/>
     <use xlink:href="#m2acc4f0723" x="524.397355" y="70.601139" style="fill: #ff7f0e; fill-opacity: 0.9; stroke: #000000; stroke-opacity: 0.9; stroke-width: 0.5"/>
     <use xlink:href="#m2acc4f0723" x="576.928321" y="190.379452" style="fill: #ff7f0e; fill-opacity: 0.9; stroke: #000000; stroke-opacity: 0.9; stroke-width: 0.5"/>
     <use xlink:href="#m2acc4f0723" x="603.195456" y="46.643636" style="fill: #ff7f0e; fill-opacity: 0.9; stroke: #000000; stroke-opacity: 0.9; stroke-width: 0.5"/>
     <use xlink:href="#m2acc4f0723" x="611.951424" y="82.578357" style="fill: #ff7f0e; fill-opacity: 0.9; stroke: #000000; stroke-opacity: 0.9; stroke-width: 0.5"/>
    </g>
   </g>
   <g id="PathCollection_3">
    <defs>
     <path id="mb64ecc8650" d="M 0 3.535534 
C 0.937635 3.535534 1.836992 3.163008 2.5 2.5 
C 3.163008 1.836992 3.535534 0.937635 3.535534 0 
C 3.535534 -0.937635 3.163008 -1.836992 2.5 -2.5 
C 1.836992 -3.163008 0.937635 -3.535534 0 -3.535534 
C -0.937635 -3.535534 -1.836992 -3.163008 -2.5 -2.5 
C -3.163008 -1.836992 -3.535534 -0.937635 -3.535534 0 
C -3.535534 0.937635 -3.163008 1.836992 -2.5 2.5 
C -1.836992 3.163008 -0.937635 3.535534 0 3.535534 
z
" style="stroke: #000000; stroke-opacity: 0.9; stroke-width: 0.5"/>
    </defs>
    <g clip-path="url(#pf864e4e24a)">
     <use xlink:href="#mb64ecc8650" x="682.002475" y="238.291391" style="fill: #2ca02c; fill-opacity: 0.9; stroke: #000000; stroke-opacity: 0.9; stroke-width: 0.5"/>
     <use xlink:href="#mb64ecc8650" x="708.273078" y="70.601139" style="fill: #2ca02c; fill-opacity: 0.9; stroke: #000000; stroke-opacity: 0.9; stroke-width: 0.5"/>
     <use xlink:href="#mb64ecc8650" x="717.030147" y="441.916364" style="fill: #2ca02c; fill-opacity: 0.9; stroke: #000000; stroke-opacity: 0.9; stroke-width: 0.5"/>
     <use xlink:href="#mb64ecc8650" x="734.544452" y="46.643636" style="fill: #2ca02c; fill-opacity: 0.9; stroke: #000000; stroke-opacity: 0.9; stroke-width: 0.5"/>
     <use xlink:href="#mb64ecc8650" x="743.301686" y="82.578357" style="fill: #2ca02c; fill-opacity: 0.9; stroke: #000000; stroke-opacity: 0.9; stroke-width: 0.5"/>
    </g>
   </g>
   <g id="matplotlib.axis_1">
    <g id="xtick_1">
     <g id="line2d_1">
      <path d="M 114.074159 461.68 
L 114.074159 26.88 
" clip-path="url(#pf864e4e24a)" style="fill: none; stroke-dasharray: 1.85,0.8; stroke-dashoffset: 0; stroke: #b0b0b0; stroke-opacity: 0.5; stroke-width: 0.5"/>
     </g>
     <g id="line2d_2">
      <defs>
       <path id="m2188a148fe" d="M 0 0 
L 0 3.5 
" style="stroke: #000000; stroke-width: 0.8"/>
      </defs>
      <g>
       <use xlink:href="#m2188a148fe" x="114.074159" y="461.68" style="stroke: #000000; stroke-width: 0.8"/>
      </g>
     </g>
     <g id="text_1">
      <!-- 8 -->
      <g transform="translate(110.892909 476.278437) scale(0.1 -0.1)">
       <defs>
        <path id="DejaVuSans-38" d="M 2034 2216 
Q 1584 2216 1326 1975 
Q 1069 1734 1069 1313 
Q 1069 891 1326 650 
Q 1584 409 2034 409 
Q 2484 409 2743 651 
Q 3003 894 3003 1313 
Q 3003 1734 2745 1975 
Q 2488 2216 2034 2216 
z
M 1403 2484 
Q 997 2584 770 2862 
Q 544 3141 544 3541 
Q 544 4100 942 4425 
Q 1341 4750 2034 4750 
Q 2731 4750 3128 4425 
Q 3525 4100 3525 3541 
Q 3525 3141 3298 2862 
Q 3072 2584 2669 2484 
Q 3125 2378 3379 2068 
Q 3634 1759 3634 1313 
Q 3634 634 3220 271 
Q 2806 -91 2034 -91 
Q 1263 -91 848 271 
Q 434 634 434 1313 
Q 434 1759 690 2068 
Q 947 2378 1403 2484 
z
M 1172 3481 
Q 1172 3119 1398 2916 
Q 1625 2713 2034 2713 
Q 2441 2713 2670 2916 
Q 2900 3119 2900 3481 
Q 2900 3844 2670 4047 
Q 2441 4250 2034 4250 
Q 1625 4250 1398 4047 
Q 1172 3844 1172 3481 
z
" transform="scale(0.015625)"/>
       </defs>
       <use xlink:href="#DejaVuSans-38"/>
      </g>
     </g>
    </g>
    <g id="xtick_2">
     <g id="line2d_3">
      <path d="M 224.176119 461.68 
L 224.176119 26.88 
" clip-path="url(#pf864e4e24a)" style="fill: none; stroke-dasharray: 1.85,0.8; stroke-dashoffset: 0; stroke: #b0b0b0; stroke-opacity: 0.5; stroke-width: 0.5"/>
     </g>
     <g id="line2d_4">
      <g>
       <use xlink:href="#m2188a148fe" x="224.176119" y="461.68" style="stroke: #000000; stroke-width: 0.8"/>
      </g>
     </g>
     <g id="text_2">
      <!-- 10 -->
      <g transform="translate(217.813619 476.278437) scale(0.1 -0.1)">
       <defs>
        <path id="DejaVuSans-31" d="M 794 531 
L 1825 531 
L 1825 4091 
L 703 3866 
L 703 4441 
L 1819 4666 
L 2450 4666 
L 2450 531 
L 3481 531 
L 3481 0 
L 794 0 
L 794 531 
z
" transform="scale(0.015625)"/>
        <path id="DejaVuSans-30" d="M 2034 4250 
Q 1547 4250 1301 3770 
Q 1056 3291 1056 2328 
Q 1056 1369 1301 889 
Q 1547 409 2034 409 
Q 2525 409 2770 889 
Q 3016 1369 3016 2328 
Q 3016 3291 2770 3770 
Q 2525 4250 2034 4250 
z
M 2034 4750 
Q 2819 4750 3233 4129 
Q 3647 3509 3647 2328 
Q 3647 1150 3233 529 
Q 2819 -91 2034 -91 
Q 1250 -91 836 529 
Q 422 1150 422 2328 
Q 422 3509 836 4129 
Q 1250 4750 2034 4750 
z
" transform="scale(0.015625)"/>
       </defs>
       <use xlink:href="#DejaVuSans-31"/>
       <use xlink:href="#DejaVuSans-30" transform="translate(63.623047 0)"/>
      </g>
     </g>
    </g>
    <g id="xtick_3">
     <g id="line2d_5">
      <path d="M 334.278079 461.68 
L 334.278079 26.88 
" clip-path="url(#pf864e4e24a)" style="fill: none; stroke-dasharray: 1.85,0.8; stroke-dashoffset: 0; stroke: #b0b0b0; stroke-opacity: 0.5; stroke-width: 0.5"/>
     </g>
     <g id="line2d_6">
      <g>
       <use xlink:href="#m2188a148fe" x="334.278079" y="461.68" style="stroke: #000000; stroke-width: 0.8"/>
      </g>
     </g>
     <g id="text_3">
      <!-- 12 -->
      <g transform="translate(327.915579 476.278437) scale(0.1 -0.1)">
       <defs>
        <path id="DejaVuSans-32" d="M 1228 531 
L 3431 531 
L 3431 0 
L 469 0 
L 469 531 
Q 828 903 1448 1529 
Q 2069 2156 2228 2338 
Q 2531 2678 2651 2914 
Q 2772 3150 2772 3378 
Q 2772 3750 2511 3984 
Q 2250 4219 1831 4219 
Q 1534 4219 1204 4116 
Q 875 4013 500 3803 
L 500 4441 
Q 881 4594 1212 4672 
Q 1544 4750 1819 4750 
Q 2544 4750 2975 4387 
Q 3406 4025 3406 3419 
Q 3406 3131 3298 2873 
Q 3191 2616 2906 2266 
Q 2828 2175 2409 1742 
Q 1991 1309 1228 531 
z
" transform="scale(0.015625)"/>
       </defs>
       <use xlink:href="#DejaVuSans-31"/>
       <use xlink:href="#DejaVuSans-32" transform="translate(63.623047 0)"/>
      </g>
     </g>
    </g>
    <g id="xtick_4">
     <g id="line2d_7">
      <path d="M 444.380039 461.68 
L 444.380039 26.88 
" clip-path="url(#pf864e4e24a)" style="fill: none; stroke-dasharray: 1.85,0.8; stroke-dashoffset: 0; stroke: #b0b0b0; stroke-opacity: 0.5; stroke-width: 0.5"/>
     </g>
     <g id="line2d_8">
      <g>
       <use xlink:href="#m2188a148fe" x="444.380039" y="461.68" style="stroke: #000000; stroke-width: 0.8"/>
      </g>
     </g>
     <g id="text_4">
      <!-- 14 -->
      <g transform="translate(438.017539 476.278437) scale(0.1 -0.1)">
       <defs>
        <path id="DejaVuSans-34" d="M 2419 4116 
L 825 1625 
L 2419 1625 
L 2419 4116 
z
M 2253 4666 
L 3047 4666 
L 3047 1625 
L 3713 1625 
L 3713 1100 
L 3047 1100 
L 3047 0 
L 2419 0 
L 2419 1100 
L 313 1100 
L 313 1709 
L 2253 4666 
z
" transform="scale(0.015625)"/>
       </defs>
       <use xlink:href="#DejaVuSans-31"/>
       <use xlink:href="#DejaVuSans-34" transform="translate(63.623047 0)"/>
      </g>
     </g>
    </g>
    <g id="xtick_5">
     <g id="line2d_9">
      <path d="M 554.481999 461.68 
L 554.481999 26.88 
" clip-path="url(#pf864e4e24a)" style="fill: none; stroke-dasharray: 1.85,0.8; stroke-dashoffset: 0; stroke: #b0b0b0; stroke-opacity: 0.5; stroke-width: 0.5"/>
     </g>
     <g id="line2d_10">
      <g>
       <use xlink:href="#m2188a148fe" x="554.481999" y="461.68" style="stroke: #000000; stroke-width: 0.8"/>
      </g>
     </g>
     <g id="text_5">
      <!-- 16 -->
      <g transform="translate(548.119499 476.278437) scale(0.1 -0.1)">
       <defs>
        <path id="DejaVuSans-36" d="M 2113 2584 
Q 1688 2584 1439 2293 
Q 1191 2003 1191 1497 
Q 1191 994 1439 701 
Q 1688 409 2113 409 
Q 2538 409 2786 701 
Q 3034 994 3034 1497 
Q 3034 2003 2786 2293 
Q 2538 2584 2113 2584 
z
M 3366 4563 
L 3366 3988 
Q 3128 4100 2886 4159 
Q 2644 4219 2406 4219 
Q 1781 4219 1451 3797 
Q 1122 3375 1075 2522 
Q 1259 2794 1537 2939 
Q 1816 3084 2150 3084 
Q 2853 3084 3261 2657 
Q 3669 2231 3669 1497 
Q 3669 778 3244 343 
Q 2819 -91 2113 -91 
Q 1303 -91 875 529 
Q 447 1150 447 2328 
Q 447 3434 972 4092 
Q 1497 4750 2381 4750 
Q 2619 4750 2861 4703 
Q 3103 4656 3366 4563 
z
" transform="scale(0.015625)"/>
       </defs>
       <use xlink:href="#DejaVuSans-31"/>
       <use xlink:href="#DejaVuSans-36" transform="translate(63.623047 0)"/>
      </g>
     </g>
    </g>
    <g id="xtick_6">
     <g id="line2d_11">
      <path d="M 664.58396 461.68 
L 664.58396 26.88 
" clip-path="url(#pf864e4e24a)" style="fill: none; stroke-dasharray: 1.85,0.8; stroke-dashoffset: 0; stroke: #b0b0b0; stroke-opacity: 0.5; stroke-width: 0.5"/>
     </g>
     <g id="line2d_12">
      <g>
       <use xlink:href="#m2188a148fe" x="664.58396" y="461.68" style="stroke: #000000; stroke-width: 0.8"/>
      </g>
     </g>
     <g id="text_6">
      <!-- 18 -->
      <g transform="translate(658.22146 476.278437) scale(0.1 -0.1)">
       <use xlink:href="#DejaVuSans-31"/>
       <use xlink:href="#DejaVuSans-38" transform="translate(63.623047 0)"/>
      </g>
     </g>
    </g>
    <g id="xtick_7">
     <g id="line2d_13">
      <path d="M 774.68592 461.68 
L 774.68592 26.88 
" clip-path="url(#pf864e4e24a)" style="fill: none; stroke-dasharray: 1.85,0.8; stroke-dashoffset: 0; stroke: #b0b0b0; stroke-opacity: 0.5; stroke-width: 0.5"/>
     </g>
     <g id="line2d_14">
      <g>
       <use xlink:href="#m2188a148fe" x="774.68592" y="461.68" style="stroke: #000000; stroke-width: 0.8"/>
      </g>
     </g>
     <g id="text_7">
      <!-- 20 -->
      <g transform="translate(768.32342 476.278437) scale(0.1 -0.1)">
       <use xlink:href="#DejaVuSans-32"/>
       <use xlink:href="#DejaVuSans-30" transform="translate(63.623047 0)"/>
      </g>
     </g>
    </g>
    <g id="text_8">
     <!-- mean_radius (toroid mean |(x,y,z)|) -->
     <g transform="translate(326.602446 490.000312) scale(0.1 -0.1)">
      <defs>
       <path id="DejaVuSans-6d" d="M 3328 2828 
Q 3544 3216 3844 3400 
Q 4144 3584 4550 3584 
Q 5097 3584 5394 3201 
Q 5691 2819 5691 2113 
L 5691 0 
L 5113 0 
L 5113 2094 
Q 5113 2597 4934 2840 
Q 4756 3084 4391 3084 
Q 3944 3084 3684 2787 
Q 3425 2491 3425 1978 
L 3425 0 
L 2847 0 
L 2847 2094 
Q 2847 2600 2669 2842 
Q 2491 3084 2119 3084 
Q 1678 3084 1418 2786 
Q 1159 2488 1159 1978 
L 1159 0 
L 581 0 
L 581 3500 
L 1159 3500 
L 1159 2956 
Q 1356 3278 1631 3431 
Q 1906 3584 2284 3584 
Q 2666 3584 2933 3390 
Q 3200 3197 3328 2828 
z
" transform="scale(0.015625)"/>
       <path id="DejaVuSans-65" d="M 3597 1894 
L 3597 1613 
L 953 1613 
Q 991 1019 1311 708 
Q 1631 397 2203 397 
Q 2534 397 2845 478 
Q 3156 559 3463 722 
L 3463 178 
Q 3153 47 2828 -22 
Q 2503 -91 2169 -91 
Q 1331 -91 842 396 
Q 353 884 353 1716 
Q 353 2575 817 3079 
Q 1281 3584 2069 3584 
Q 2775 3584 3186 3129 
Q 3597 2675 3597 1894 
z
M 3022 2063 
Q 3016 2534 2758 2815 
Q 2500 3097 2075 3097 
Q 1594 3097 1305 2825 
Q 1016 2553 972 2059 
L 3022 2063 
z
" transform="scale(0.015625)"/>
       <path id="DejaVuSans-61" d="M 2194 1759 
Q 1497 1759 1228 1600 
Q 959 1441 959 1056 
Q 959 750 1161 570 
Q 1363 391 1709 391 
Q 2188 391 2477 730 
Q 2766 1069 2766 1631 
L 2766 1759 
L 2194 1759 
z
M 3341 1997 
L 3341 0 
L 2766 0 
L 2766 531 
Q 2569 213 2275 61 
Q 1981 -91 1556 -91 
Q 1019 -91 701 211 
Q 384 513 384 1019 
Q 384 1609 779 1909 
Q 1175 2209 1959 2209 
L 2766 2209 
L 2766 2266 
Q 2766 2663 2505 2880 
Q 2244 3097 1772 3097 
Q 1472 3097 1187 3025 
Q 903 2953 641 2809 
L 641 3341 
Q 956 3463 1253 3523 
Q 1550 3584 1831 3584 
Q 2591 3584 2966 3190 
Q 3341 2797 3341 1997 
z
" transform="scale(0.015625)"/>
       <path id="DejaVuSans-6e" d="M 3513 2113 
L 3513 0 
L 2938 0 
L 2938 2094 
Q 2938 2591 2744 2837 
Q 2550 3084 2163 3084 
Q 1697 3084 1428 2787 
Q 1159 2491 1159 1978 
L 1159 0 
L 581 0 
L 581 3500 
L 1159 3500 
L 1159 2956 
Q 1366 3272 1645 3428 
Q 1925 3584 2291 3584 
Q 2894 3584 3203 3211 
Q 3513 2838 3513 2113 
z
" transform="scale(0.015625)"/>
       <path id="DejaVuSans-5f" d="M 3263 -1063 
L 3263 -1509 
L -63 -1509 
L -63 -1063 
L 3263 -1063 
z
" transform="scale(0.015625)"/>
       <path id="DejaVuSans-72" d="M 2631 2963 
Q 2534 3019 2420 3045 
Q 2306 3072 2169 3072 
Q 1681 3072 1420 2755 
Q 1159 2438 1159 1844 
L 1159 0 
L 581 0 
L 581 3500 
L 1159 3500 
L 1159 2956 
Q 1341 3275 1631 3429 
Q 1922 3584 2338 3584 
Q 2397 3584 2469 3576 
Q 2541 3569 2628 3553 
L 2631 2963 
z
" transform="scale(0.015625)"/>
       <path id="DejaVuSans-64" d="M 2906 2969 
L 2906 4863 
L 3481 4863 
L 3481 0 
L 2906 0 
L 2906 525 
Q 2725 213 2448 61 
Q 2172 -91 1784 -91 
Q 1150 -91 751 415 
Q 353 922 353 1747 
Q 353 2572 751 3078 
Q 1150 3584 1784 3584 
Q 2172 3584 2448 3432 
Q 2725 3281 2906 2969 
z
M 947 1747 
Q 947 1113 1208 752 
Q 1469 391 1925 391 
Q 2381 391 2643 752 
Q 2906 1113 2906 1747 
Q 2906 2381 2643 2742 
Q 2381 3103 1925 3103 
Q 1469 3103 1208 2742 
Q 947 2381 947 1747 
z
" transform="scale(0.015625)"/>
       <path id="DejaVuSans-69" d="M 603 3500 
L 1178 3500 
L 1178 0 
L 603 0 
L 603 3500 
z
M 603 4863 
L 1178 4863 
L 1178 4134 
L 603 4134 
L 603 4863 
z
" transform="scale(0.015625)"/>
       <path id="DejaVuSans-75" d="M 544 1381 
L 544 3500 
L 1119 3500 
L 1119 1403 
Q 1119 906 1312 657 
Q 1506 409 1894 409 
Q 2359 409 2629 706 
Q 2900 1003 2900 1516 
L 2900 3500 
L 3475 3500 
L 3475 0 
L 2900 0 
L 2900 538 
Q 2691 219 2414 64 
Q 2138 -91 1772 -91 
Q 1169 -91 856 284 
Q 544 659 544 1381 
z
M 1991 3584 
L 1991 3584 
z
" transform="scale(0.015625)"/>
       <path id="DejaVuSans-73" d="M 2834 3397 
L 2834 2853 
Q 2591 2978 2328 3040 
Q 2066 3103 1784 3103 
Q 1356 3103 1142 2972 
Q 928 2841 928 2578 
Q 928 2378 1081 2264 
Q 1234 2150 1697 2047 
L 1894 2003 
Q 2506 1872 2764 1633 
Q 3022 1394 3022 966 
Q 3022 478 2636 193 
Q 2250 -91 1575 -91 
Q 1294 -91 989 -36 
Q 684 19 347 128 
L 347 722 
Q 666 556 975 473 
Q 1284 391 1588 391 
Q 1994 391 2212 530 
Q 2431 669 2431 922 
Q 2431 1156 2273 1281 
Q 2116 1406 1581 1522 
L 1381 1569 
Q 847 1681 609 1914 
Q 372 2147 372 2553 
Q 372 3047 722 3315 
Q 1072 3584 1716 3584 
Q 2034 3584 2315 3537 
Q 2597 3491 2834 3397 
z
" transform="scale(0.015625)"/>
       <path id="DejaVuSans-20" transform="scale(0.015625)"/>
       <path id="DejaVuSans-28" d="M 1984 4856 
Q 1566 4138 1362 3434 
Q 1159 2731 1159 2009 
Q 1159 1288 1364 580 
Q 1569 -128 1984 -844 
L 1484 -844 
Q 1016 -109 783 600 
Q 550 1309 550 2009 
Q 550 2706 781 3412 
Q 1013 4119 1484 4856 
L 1984 4856 
z
" transform="scale(0.015625)"/>
       <path id="DejaVuSans-74" d="M 1172 4494 
L 1172 3500 
L 2356 3500 
L 2356 3053 
L 1172 3053 
L 1172 1153 
Q 1172 725 1289 603 
Q 1406 481 1766 481 
L 2356 481 
L 2356 0 
L 1766 0 
Q 1100 0 847 248 
Q 594 497 594 1153 
L 594 3053 
L 172 3053 
L 172 3500 
L 594 3500 
L 594 4494 
L 1172 4494 
z
" transform="scale(0.015625)"/>
       <path id="DejaVuSans-6f" d="M 1959 3097 
Q 1497 3097 1228 2736 
Q 959 2375 959 1747 
Q 959 1119 1226 758 
Q 1494 397 1959 397 
Q 2419 397 2687 759 
Q 2956 1122 2956 1747 
Q 2956 2369 2687 2733 
Q 2419 3097 1959 3097 
z
M 1959 3584 
Q 2709 3584 3137 3096 
Q 3566 2609 3566 1747 
Q 3566 888 3137 398 
Q 2709 -91 1959 -91 
Q 1206 -91 779 398 
Q 353 888 353 1747 
Q 353 2609 779 3096 
Q 1206 3584 1959 3584 
z
" transform="scale(0.015625)"/>
       <path id="DejaVuSans-7c" d="M 1344 4891 
L 1344 -1509 
L 813 -1509 
L 813 4891 
L 1344 4891 
z
" transform="scale(0.015625)"/>
       <path id="DejaVuSans-78" d="M 3513 3500 
L 2247 1797 
L 3578 0 
L 2900 0 
L 1881 1375 
L 863 0 
L 184 0 
L 1544 1831 
L 300 3500 
L 978 3500 
L 1906 2253 
L 2834 3500 
L 3513 3500 
z
" transform="scale(0.015625)"/>
       <path id="DejaVuSans-2c" d="M 750 794 
L 1409 794 
L 1409 256 
L 897 -744 
L 494 -744 
L 750 256 
L 750 794 
z
" transform="scale(0.015625)"/>
       <path id="DejaVuSans-79" d="M 2059 -325 
Q 1816 -950 1584 -1140 
Q 1353 -1331 966 -1331 
L 506 -1331 
L 506 -850 
L 844 -850 
Q 1081 -850 1212 -737 
Q 1344 -625 1503 -206 
L 1606 56 
L 191 3500 
L 800 3500 
L 1894 763 
L 2988 3500 
L 3597 3500 
L 2059 -325 
z
" transform="scale(0.015625)"/>
       <path id="DejaVuSans-7a" d="M 353 3500 
L 3084 3500 
L 3084 2975 
L 922 459 
L 3084 459 
L 3084 0 
L 275 0 
L 275 525 
L 2438 3041 
L 353 3041 
L 353 3500 
z
" transform="scale(0.015625)"/>
       <path id="DejaVuSans-29" d="M 513 4856 
L 1013 4856 
Q 1481 4119 1714 3412 
Q 1947 2706 1947 2009 
Q 1947 1309 1714 600 
Q 1481 -109 1013 -844 
L 513 -844 
Q 928 -128 1133 580 
Q 1338 1288 1338 2009 
Q 1338 2731 1133 3434 
Q 928 4138 513 4856 
z
" transform="scale(0.015625)"/>
      </defs>
      <use xlink:href="#DejaVuSans-6d"/>
      <use xlink:href="#DejaVuSans-65" transform="translate(97.412109 0)"/>
      <use xlink:href="#DejaVuSans-61" transform="translate(158.935547 0)"/>
      <use xlink:href="#DejaVuSans-6e" transform="translate(220.214844 0)"/>
      <use xlink:href="#DejaVuSans-5f" transform="translate(283.59375 0)"/>
      <use xlink:href="#DejaVuSans-72" transform="translate(333.59375 0)"/>
      <use xlink:href="#DejaVuSans-61" transform="translate(374.707031 0)"/>
      <use xlink:href="#DejaVuSans-64" transform="translate(435.986328 0)"/>
      <use xlink:href="#DejaVuSans-69" transform="translate(499.462891 0)"/>
      <use xlink:href="#DejaVuSans-75" transform="translate(527.246094 0)"/>
      <use xlink:href="#DejaVuSans-73" transform="translate(590.625 0)"/>
      <use xlink:href="#DejaVuSans-20" transform="translate(642.724609 0)"/>
      <use xlink:href="#DejaVuSans-28" transform="translate(674.511719 0)"/>
      <use xlink:href="#DejaVuSans-74" transform="translate(713.525391 0)"/>
      <use xlink:href="#DejaVuSans-6f" transform="translate(752.734375 0)"/>
      <use xlink:href="#DejaVuSans-72" transform="translate(813.916016 0)"/>
      <use xlink:href="#DejaVuSans-6f" transform="translate(852.779297 0)"/>
      <use xlink:href="#DejaVuSans-69" transform="translate(913.960938 0)"/>
      <use xlink:href="#DejaVuSans-64" transform="translate(941.744141 0)"/>
      <use xlink:href="#DejaVuSans-20" transform="translate(1005.220703 0)"/>
      <use xlink:href="#DejaVuSans-6d" transform="translate(1037.007812 0)"/>
      <use xlink:href="#DejaVuSans-65" transform="translate(1134.419922 0)"/>
      <use xlink:href="#DejaVuSans-61" transform="translate(1195.943359 0)"/>
      <use xlink:href="#DejaVuSans-6e" transform="translate(1257.222656 0)"/>
      <use xlink:href="#DejaVuSans-20" transform="translate(1320.601562 0)"/>
      <use xlink:href="#DejaVuSans-7c" transform="translate(1352.388672 0)"/>
      <use xlink:href="#DejaVuSans-28" transform="translate(1386.080078 0)"/>
      <use xlink:href="#DejaVuSans-78" transform="translate(1425.09375 0)"/>
      <use xlink:href="#DejaVuSans-2c" transform="translate(1484.273438 0)"/>
      <use xlink:href="#DejaVuSans-79" transform="translate(1516.060547 0)"/>
      <use xlink:href="#DejaVuSans-2c" transform="translate(1575.240234 0)"/>
      <use xlink:href="#DejaVuSans-7a" transform="translate(1607.027344 0)"/>
      <use xlink:href="#DejaVuSans-29" transform="translate(1659.517578 0)"/>
      <use xlink:href="#DejaVuSans-7c" transform="translate(1698.53125 0)"/>
      <use xlink:href="#DejaVuSans-29" transform="translate(1732.222656 0)"/>
     </g>
    </g>
   </g>
   <g id="matplotlib.axis_2">
    <g id="ytick_1">
     <g id="line2d_15">
      <path d="M 54.21125 402.630107 
L 776.115517 402.630107 
" clip-path="url(#pf864e4e24a)" style="fill: none; stroke-dasharray: 1.85,0.8; stroke-dashoffset: 0; stroke: #b0b0b0; stroke-opacity: 0.5; stroke-width: 0.5"/>
     </g>
     <g id="line2d_16">
      <defs>
       <path id="m7aa143f6a2" d="M 0 0 
L -3.5 0 
" style="stroke: #000000; stroke-width: 0.8"/>
      </defs>
      <g>
       <use xlink:href="#m7aa143f6a2" x="54.21125" y="402.630107" style="stroke: #000000; stroke-width: 0.8"/>
      </g>
     </g>
     <g id="text_9">
      <!-- 0.88 -->
      <g transform="translate(24.945625 406.429326) scale(0.1 -0.1)">
       <defs>
        <path id="DejaVuSans-2e" d="M 684 794 
L 1344 794 
L 1344 0 
L 684 0 
L 684 794 
z
" transform="scale(0.015625)"/>
       </defs>
       <use xlink:href="#DejaVuSans-30"/>
       <use xlink:href="#DejaVuSans-2e" transform="translate(63.623047 0)"/>
       <use xlink:href="#DejaVuSans-38" transform="translate(95.410156 0)"/>
       <use xlink:href="#DejaVuSans-38" transform="translate(159.033203 0)"/>
      </g>
     </g>
    </g>
    <g id="ytick_2">
     <g id="line2d_17">
      <path d="M 54.21125 341.302826 
L 776.115517 341.302826 
" clip-path="url(#pf864e4e24a)" style="fill: none; stroke-dasharray: 1.85,0.8; stroke-dashoffset: 0; stroke: #b0b0b0; stroke-opacity: 0.5; stroke-width: 0.5"/>
     </g>
     <g id="line2d_18">
      <g>
       <use xlink:href="#m7aa143f6a2" x="54.21125" y="341.302826" style="stroke: #000000; stroke-width: 0.8"/>
      </g>
     </g>
     <g id="text_10">
      <!-- 0.90 -->
      <g transform="translate(24.945625 345.102044) scale(0.1 -0.1)">
       <defs>
        <path id="DejaVuSans-39" d="M 703 97 
L 703 672 
Q 941 559 1184 500 
Q 1428 441 1663 441 
Q 2288 441 2617 861 
Q 2947 1281 2994 2138 
Q 2813 1869 2534 1725 
Q 2256 1581 1919 1581 
Q 1219 1581 811 2004 
Q 403 2428 403 3163 
Q 403 3881 828 4315 
Q 1253 4750 1959 4750 
Q 2769 4750 3195 4129 
Q 3622 3509 3622 2328 
Q 3622 1225 3098 567 
Q 2575 -91 1691 -91 
Q 1453 -91 1209 -44 
Q 966 3 703 97 
z
M 1959 2075 
Q 2384 2075 2632 2365 
Q 2881 2656 2881 3163 
Q 2881 3666 2632 3958 
Q 2384 4250 1959 4250 
Q 1534 4250 1286 3958 
Q 1038 3666 1038 3163 
Q 1038 2656 1286 2365 
Q 1534 2075 1959 2075 
z
" transform="scale(0.015625)"/>
       </defs>
       <use xlink:href="#DejaVuSans-30"/>
       <use xlink:href="#DejaVuSans-2e" transform="translate(63.623047 0)"/>
       <use xlink:href="#DejaVuSans-39" transform="translate(95.410156 0)"/>
       <use xlink:href="#DejaVuSans-30" transform="translate(159.033203 0)"/>
      </g>
     </g>
    </g>
    <g id="ytick_3">
     <g id="line2d_19">
      <path d="M 54.21125 279.975544 
L 776.115517 279.975544 
" clip-path="url(#pf864e4e24a)" style="fill: none; stroke-dasharray: 1.85,0.8; stroke-dashoffset: 0; stroke: #b0b0b0; stroke-opacity: 0.5; stroke-width: 0.5"/>
     </g>
     <g id="line2d_20">
      <g>
       <use xlink:href="#m7aa143f6a2" x="54.21125" y="279.975544" style="stroke: #000000; stroke-width: 0.8"/>
      </g>
     </g>
     <g id="text_11">
      <!-- 0.92 -->
      <g transform="translate(24.945625 283.774763) scale(0.1 -0.1)">
       <use xlink:href="#DejaVuSans-30"/>
       <use xlink:href="#DejaVuSans-2e" transform="translate(63.623047 0)"/>
       <use xlink:href="#DejaVuSans-39" transform="translate(95.410156 0)"/>
       <use xlink:href="#DejaVuSans-32" transform="translate(159.033203 0)"/>
      </g>
     </g>
    </g>
    <g id="ytick_4">
     <g id="line2d_21">
      <path d="M 54.21125 218.648263 
L 776.115517 218.648263 
" clip-path="url(#pf864e4e24a)" style="fill: none; stroke-dasharray: 1.85,0.8; stroke-dashoffset: 0; stroke: #b0b0b0; stroke-opacity: 0.5; stroke-width: 0.5"/>
     </g>
     <g id="line2d_22">
      <g>
       <use xlink:href="#m7aa143f6a2" x="54.21125" y="218.648263" style="stroke: #000000; stroke-width: 0.8"/>
      </g>
     </g>
     <g id="text_12">
      <!-- 0.94 -->
      <g transform="translate(24.945625 222.447481) scale(0.1 -0.1)">
       <use xlink:href="#DejaVuSans-30"/>
       <use xlink:href="#DejaVuSans-2e" transform="translate(63.623047 0)"/>
       <use xlink:href="#DejaVuSans-39" transform="translate(95.410156 0)"/>
       <use xlink:href="#DejaVuSans-34" transform="translate(159.033203 0)"/>
      </g>
     </g>
    </g>
    <g id="ytick_5">
     <g id="line2d_23">
      <path d="M 54.21125 157.320981 
L 776.115517 157.320981 
" clip-path="url(#pf864e4e24a)" style="fill: none; stroke-dasharray: 1.85,0.8; stroke-dashoffset: 0; stroke: #b0b0b0; stroke-opacity: 0.5; stroke-width: 0.5"/>
     </g>
     <g id="line2d_24">
      <g>
       <use xlink:href="#m7aa143f6a2" x="54.21125" y="157.320981" style="stroke: #000000; stroke-width: 0.8"/>
      </g>
     </g>
     <g id="text_13">
      <!-- 0.96 -->
      <g transform="translate(24.945625 161.1202) scale(0.1 -0.1)">
       <use xlink:href="#DejaVuSans-30"/>
       <use xlink:href="#DejaVuSans-2e" transform="translate(63.623047 0)"/>
       <use xlink:href="#DejaVuSans-39" transform="translate(95.410156 0)"/>
       <use xlink:href="#DejaVuSans-36" transform="translate(159.033203 0)"/>
      </g>
     </g>
    </g>
    <g id="ytick_6">
     <g id="line2d_25">
      <path d="M 54.21125 95.9937 
L 776.115517 95.9937 
" clip-path="url(#pf864e4e24a)" style="fill: none; stroke-dasharray: 1.85,0.8; stroke-dashoffset: 0; stroke: #b0b0b0; stroke-opacity: 0.5; stroke-width: 0.5"/>
     </g>
     <g id="line2d_26">
      <g>
       <use xlink:href="#m7aa143f6a2" x="54.21125" y="95.9937" style="stroke: #000000; stroke-width: 0.8"/>
      </g>
     </g>
     <g id="text_14">
      <!-- 0.98 -->
      <g transform="translate(24.945625 99.792919) scale(0.1 -0.1)">
       <use xlink:href="#DejaVuSans-30"/>
       <use xlink:href="#DejaVuSans-2e" transform="translate(63.623047 0)"/>
       <use xlink:href="#DejaVuSans-39" transform="translate(95.410156 0)"/>
       <use xlink:href="#DejaVuSans-38" transform="translate(159.033203 0)"/>
      </g>
     </g>
    </g>
    <g id="ytick_7">
     <g id="line2d_27">
      <path d="M 54.21125 34.666418 
L 776.115517 34.666418 
" clip-path="url(#pf864e4e24a)" style="fill: none; stroke-dasharray: 1.85,0.8; stroke-dashoffset: 0; stroke: #b0b0b0; stroke-opacity: 0.5; stroke-width: 0.5"/>
     </g>
     <g id="line2d_28">
      <g>
       <use xlink:href="#m7aa143f6a2" x="54.21125" y="34.666418" style="stroke: #000000; stroke-width: 0.8"/>
      </g>
     </g>
     <g id="text_15">
      <!-- 1.00 -->
      <g transform="translate(24.945625 38.465637) scale(0.1 -0.1)">
       <use xlink:href="#DejaVuSans-31"/>
       <use xlink:href="#DejaVuSans-2e" transform="translate(63.623047 0)"/>
       <use xlink:href="#DejaVuSans-30" transform="translate(95.410156 0)"/>
       <use xlink:href="#DejaVuSans-30" transform="translate(159.033203 0)"/>
      </g>
     </g>
    </g>
    <g id="text_16">
     <!-- phi_span_2pi (normalized angular coverage) -->
     <g transform="translate(18.587813 355.519844) rotate(-90) scale(0.1 -0.1)">
      <defs>
       <path id="DejaVuSans-70" d="M 1159 525 
L 1159 -1331 
L 581 -1331 
L 581 3500 
L 1159 3500 
L 1159 2969 
Q 1341 3281 1617 3432 
Q 1894 3584 2278 3584 
Q 2916 3584 3314 3078 
Q 3713 2572 3713 1747 
Q 3713 922 3314 415 
Q 2916 -91 2278 -91 
Q 1894 -91 1617 61 
Q 1341 213 1159 525 
z
M 3116 1747 
Q 3116 2381 2855 2742 
Q 2594 3103 2138 3103 
Q 1681 3103 1420 2742 
Q 1159 2381 1159 1747 
Q 1159 1113 1420 752 
Q 1681 391 2138 391 
Q 2594 391 2855 752 
Q 3116 1113 3116 1747 
z
" transform="scale(0.015625)"/>
       <path id="DejaVuSans-68" d="M 3513 2113 
L 3513 0 
L 2938 0 
L 2938 2094 
Q 2938 2591 2744 2837 
Q 2550 3084 2163 3084 
Q 1697 3084 1428 2787 
Q 1159 2491 1159 1978 
L 1159 0 
L 581 0 
L 581 4863 
L 1159 4863 
L 1159 2956 
Q 1366 3272 1645 3428 
Q 1925 3584 2291 3584 
Q 2894 3584 3203 3211 
Q 3513 2838 3513 2113 
z
" transform="scale(0.015625)"/>
       <path id="DejaVuSans-6c" d="M 603 4863 
L 1178 4863 
L 1178 0 
L 603 0 
L 603 4863 
z
" transform="scale(0.015625)"/>
       <path id="DejaVuSans-67" d="M 2906 1791 
Q 2906 2416 2648 2759 
Q 2391 3103 1925 3103 
Q 1463 3103 1205 2759 
Q 947 2416 947 1791 
Q 947 1169 1205 825 
Q 1463 481 1925 481 
Q 2391 481 2648 825 
Q 2906 1169 2906 1791 
z
M 3481 434 
Q 3481 -459 3084 -895 
Q 2688 -1331 1869 -1331 
Q 1566 -1331 1297 -1286 
Q 1028 -1241 775 -1147 
L 775 -588 
Q 1028 -725 1275 -790 
Q 1522 -856 1778 -856 
Q 2344 -856 2625 -561 
Q 2906 -266 2906 331 
L 2906 616 
Q 2728 306 2450 153 
Q 2172 0 1784 0 
Q 1141 0 747 490 
Q 353 981 353 1791 
Q 353 2603 747 3093 
Q 1141 3584 1784 3584 
Q 2172 3584 2450 3431 
Q 2728 3278 2906 2969 
L 2906 3500 
L 3481 3500 
L 3481 434 
z
" transform="scale(0.015625)"/>
       <path id="DejaVuSans-63" d="M 3122 3366 
L 3122 2828 
Q 2878 2963 2633 3030 
Q 2388 3097 2138 3097 
Q 1578 3097 1268 2742 
Q 959 2388 959 1747 
Q 959 1106 1268 751 
Q 1578 397 2138 397 
Q 2388 397 2633 464 
Q 2878 531 3122 666 
L 3122 134 
Q 2881 22 2623 -34 
Q 2366 -91 2075 -91 
Q 1284 -91 818 406 
Q 353 903 353 1747 
Q 353 2603 823 3093 
Q 1294 3584 2113 3584 
Q 2378 3584 2631 3529 
Q 2884 3475 3122 3366 
z
" transform="scale(0.015625)"/>
       <path id="DejaVuSans-76" d="M 191 3500 
L 800 3500 
L 1894 563 
L 2988 3500 
L 3597 3500 
L 2284 0 
L 1503 0 
L 191 3500 
z
" transform="scale(0.015625)"/>
      </defs>
      <use xlink:href="#DejaVuSans-70"/>
      <use xlink:href="#DejaVuSans-68" transform="translate(63.476562 0)"/>
      <use xlink:href="#DejaVuSans-69" transform="translate(126.855469 0)"/>
      <use xlink:href="#DejaVuSans-5f" transform="translate(154.638672 0)"/>
      <use xlink:href="#DejaVuSans-73" transform="translate(204.638672 0)"/>
      <use xlink:href="#DejaVuSans-70" transform="translate(256.738281 0)"/>
      <use xlink:href="#DejaVuSans-61" transform="translate(320.214844 0)"/>
      <use xlink:href="#DejaVuSans-6e" transform="translate(381.494141 0)"/>
      <use xlink:href="#DejaVuSans-5f" transform="translate(444.873047 0)"/>
      <use xlink:href="#DejaVuSans-32" transform="translate(494.873047 0)"/>
      <use xlink:href="#DejaVuSans-70" transform="translate(558.496094 0)"/>
      <use xlink:href="#DejaVuSans-69" transform="translate(621.972656 0)"/>
      <use xlink:href="#DejaVuSans-20" transform="translate(649.755859 0)"/>
      <use xlink:href="#DejaVuSans-28" transform="translate(681.542969 0)"/>
      <use xlink:href="#DejaVuSans-6e" transform="translate(720.556641 0)"/>
      <use xlink:href="#DejaVuSans-6f" transform="translate(783.935547 0)"/>
      <use xlink:href="#DejaVuSans-72" transform="translate(845.117188 0)"/>
      <use xlink:href="#DejaVuSans-6d" transform="translate(884.480469 0)"/>
      <use xlink:href="#DejaVuSans-61" transform="translate(981.892578 0)"/>
      <use xlink:href="#DejaVuSans-6c" transform="translate(1043.171875 0)"/>
      <use xlink:href="#DejaVuSans-69" transform="translate(1070.955078 0)"/>
      <use xlink:href="#DejaVuSans-7a" transform="translate(1098.738281 0)"/>
      <use xlink:href="#DejaVuSans-65" transform="translate(1151.228516 0)"/>
      <use xlink:href="#DejaVuSans-64" transform="translate(1212.751953 0)"/>
      <use xlink:href="#DejaVuSans-20" transform="translate(1276.228516 0)"/>
      <use xlink:href="#DejaVuSans-61" transform="translate(1308.015625 0)"/>
      <use xlink:href="#DejaVuSans-6e" transform="translate(1369.294922 0)"/>
      <use xlink:href="#DejaVuSans-67" transform="translate(1432.673828 0)"/>
      <use xlink:href="#DejaVuSans-75" transform="translate(1496.150391 0)"/>
      <use xlink:href="#DejaVuSans-6c" transform="translate(1559.529297 0)"/>
      <use xlink:href="#DejaVuSans-61" transform="translate(1587.3125 0)"/>
      <use xlink:href="#DejaVuSans-72" transform="translate(1648.591797 0)"/>
      <use xlink:href="#DejaVuSans-20" transform="translate(1689.705078 0)"/>
      <use xlink:href="#DejaVuSans-63" transform="translate(1721.492188 0)"/>
      <use xlink:href="#DejaVuSans-6f" transform="translate(1776.472656 0)"/>
      <use xlink:href="#DejaVuSans-76" transform="translate(1837.654297 0)"/>
      <use xlink:href="#DejaVuSans-65" transform="translate(1896.833984 0)"/>
      <use xlink:href="#DejaVuSans-72" transform="translate(1958.357422 0)"/>
      <use xlink:href="#DejaVuSans-61" transform="translate(1999.470703 0)"/>
      <use xlink:href="#DejaVuSans-67" transform="translate(2060.75 0)"/>
      <use xlink:href="#DejaVuSans-65" transform="translate(2124.226562 0)"/>
      <use xlink:href="#DejaVuSans-29" transform="translate(2185.75 0)"/>
     </g>
    </g>
   </g>
   <g id="patch_3">
    <path d="M 54.21125 461.68 
L 54.21125 26.88 
" style="fill: none; stroke: #000000; stroke-width: 0.8; stroke-linejoin: miter; stroke-linecap: square"/>
   </g>
   <g id="patch_4">
    <path d="M 776.115517 461.68 
L 776.115517 26.88 
" style="fill: none; stroke: #000000; stroke-width: 0.8; stroke-linejoin: miter; stroke-linecap: square"/>
   </g>
   <g id="patch_5">
    <path d="M 54.21125 461.68 
L 776.115517 461.68 
" style="fill: none; stroke: #000000; stroke-width: 0.8; stroke-linejoin: miter; stroke-linecap: square"/>
   </g>
   <g id="patch_6">
    <path d="M 54.21125 26.88 
L 776.115517 26.88 
" style="fill: none; stroke: #000000; stroke-width: 0.8; stroke-linejoin: miter; stroke-linecap: square"/>
   </g>
   <g id="text_17">
    <!-- 47 -->
    <g transform="translate(81.29883 380.155488) scale(0.09 -0.09)">
     <defs>
      <path id="DejaVuSans-37" d="M 525 4666 
L 3525 4666 
L 3525 4397 
L 1831 0 
L 1172 0 
L 2766 4134 
L 525 4134 
L 525 4666 
z
" transform="scale(0.015625)"/>
     </defs>
     <use xlink:href="#DejaVuSans-34"/>
     <use xlink:href="#DejaVuSans-37" transform="translate(63.623047 0)"/>
    </g>
   </g>
   <g id="text_18">
    <!-- 53 -->
    <g transform="translate(133.712703 44.771918) scale(0.09 -0.09)">
     <defs>
      <path id="DejaVuSans-35" d="M 691 4666 
L 3169 4666 
L 3169 4134 
L 1269 4134 
L 1269 2991 
Q 1406 3038 1543 3061 
Q 1681 3084 1819 3084 
Q 2600 3084 3056 2656 
Q 3513 2228 3513 1497 
Q 3513 744 3044 326 
Q 2575 -91 1722 -91 
Q 1428 -91 1123 -41 
Q 819 9 494 109 
L 494 744 
Q 775 591 1075 516 
Q 1375 441 1709 441 
Q 2250 441 2565 725 
Q 2881 1009 2881 1497 
Q 2881 1984 2565 2268 
Q 2250 2553 1709 2553 
Q 1456 2553 1204 2497 
Q 953 2441 691 2322 
L 691 4666 
z
" transform="scale(0.015625)"/>
      <path id="DejaVuSans-33" d="M 2597 2516 
Q 3050 2419 3304 2112 
Q 3559 1806 3559 1356 
Q 3559 666 3084 287 
Q 2609 -91 1734 -91 
Q 1441 -91 1130 -33 
Q 819 25 488 141 
L 488 750 
Q 750 597 1062 519 
Q 1375 441 1716 441 
Q 2309 441 2620 675 
Q 2931 909 2931 1356 
Q 2931 1769 2642 2001 
Q 2353 2234 1838 2234 
L 1294 2234 
L 1294 2753 
L 1863 2753 
Q 2328 2753 2575 2939 
Q 2822 3125 2822 3475 
Q 2822 3834 2567 4026 
Q 2313 4219 1838 4219 
Q 1578 4219 1281 4162 
Q 984 4106 628 3988 
L 628 4550 
Q 988 4650 1302 4700 
Q 1616 4750 1894 4750 
Q 2613 4750 3031 4423 
Q 3450 4097 3450 3541 
Q 3450 3153 3228 2886 
Q 3006 2619 2597 2516 
z
" transform="scale(0.015625)"/>
     </defs>
     <use xlink:href="#DejaVuSans-35"/>
     <use xlink:href="#DejaVuSans-33" transform="translate(63.623047 0)"/>
    </g>
   </g>
   <g id="text_19">
    <!-- 59 -->
    <g transform="translate(186.158341 56.749136) scale(0.09 -0.09)">
     <use xlink:href="#DejaVuSans-35"/>
     <use xlink:href="#DejaVuSans-39" transform="translate(63.623047 0)"/>
    </g>
   </g>
   <g id="text_20">
    <!-- 61 -->
    <g transform="translate(203.64567 80.706638) scale(0.09 -0.09)">
     <use xlink:href="#DejaVuSans-36"/>
     <use xlink:href="#DejaVuSans-31" transform="translate(63.623047 0)"/>
    </g>
   </g>
   <g id="text_21">
    <!-- 67 -->
    <g transform="translate(256.120484 44.771918) scale(0.09 -0.09)">
     <use xlink:href="#DejaVuSans-36"/>
     <use xlink:href="#DejaVuSans-37" transform="translate(63.623047 0)"/>
    </g>
   </g>
   <g id="text_22">
    <!-- 81 -->
    <g transform="translate(378.616567 68.72942) scale(0.09 -0.09)">
     <use xlink:href="#DejaVuSans-38"/>
     <use xlink:href="#DejaVuSans-31" transform="translate(63.623047 0)"/>
    </g>
   </g>
   <g id="text_23">
    <!-- 94 -->
    <g transform="translate(492.407438 380.155488) scale(0.09 -0.09)">
     <use xlink:href="#DejaVuSans-39"/>
     <use xlink:href="#DejaVuSans-34" transform="translate(63.623047 0)"/>
    </g>
   </g>
   <g id="text_24">
    <!-- 97 -->
    <g transform="translate(518.671105 68.72942) scale(0.09 -0.09)">
     <use xlink:href="#DejaVuSans-39"/>
     <use xlink:href="#DejaVuSans-37" transform="translate(63.623047 0)"/>
    </g>
   </g>
   <g id="text_25">
    <!-- 103 -->
    <g transform="translate(568.338946 188.507734) scale(0.09 -0.09)">
     <use xlink:href="#DejaVuSans-31"/>
     <use xlink:href="#DejaVuSans-30" transform="translate(63.623047 0)"/>
     <use xlink:href="#DejaVuSans-33" transform="translate(127.246094 0)"/>
    </g>
   </g>
   <g id="text_26">
    <!-- 106 -->
    <g transform="translate(594.606081 44.771918) scale(0.09 -0.09)">
     <use xlink:href="#DejaVuSans-31"/>
     <use xlink:href="#DejaVuSans-30" transform="translate(63.623047 0)"/>
     <use xlink:href="#DejaVuSans-36" transform="translate(127.246094 0)"/>
    </g>
   </g>
   <g id="text_27">
    <!-- 107 -->
    <g transform="translate(603.362049 80.706638) scale(0.09 -0.09)">
     <use xlink:href="#DejaVuSans-31"/>
     <use xlink:href="#DejaVuSans-30" transform="translate(63.623047 0)"/>
     <use xlink:href="#DejaVuSans-37" transform="translate(127.246094 0)"/>
    </g>
   </g>
   <g id="text_28">
    <!-- 115 -->
    <g transform="translate(673.4131 236.419672) scale(0.09 -0.09)">
     <use xlink:href="#DejaVuSans-31"/>
     <use xlink:href="#DejaVuSans-31" transform="translate(63.623047 0)"/>
     <use xlink:href="#DejaVuSans-35" transform="translate(127.246094 0)"/>
    </g>
   </g>
   <g id="text_29">
    <!-- 118 -->
    <g transform="translate(699.683703 68.72942) scale(0.09 -0.09)">
     <use xlink:href="#DejaVuSans-31"/>
     <use xlink:href="#DejaVuSans-31" transform="translate(63.623047 0)"/>
     <use xlink:href="#DejaVuSans-38" transform="translate(127.246094 0)"/>
    </g>
   </g>
   <g id="text_30">
    <!-- 119 -->
    <g transform="translate(708.440772 440.044645) scale(0.09 -0.09)">
     <use xlink:href="#DejaVuSans-31"/>
     <use xlink:href="#DejaVuSans-31" transform="translate(63.623047 0)"/>
     <use xlink:href="#DejaVuSans-39" transform="translate(127.246094 0)"/>
    </g>
   </g>
   <g id="text_31">
    <!-- 121 -->
    <g transform="translate(725.955077 44.771918) scale(0.09 -0.09)">
     <use xlink:href="#DejaVuSans-31"/>
     <use xlink:href="#DejaVuSans-32" transform="translate(63.623047 0)"/>
     <use xlink:href="#DejaVuSans-31" transform="translate(127.246094 0)"/>
    </g>
   </g>
   <g id="text_32">
    <!-- 122 -->
    <g transform="translate(734.712311 80.706638) scale(0.09 -0.09)">
     <use xlink:href="#DejaVuSans-31"/>
     <use xlink:href="#DejaVuSans-32" transform="translate(63.623047 0)"/>
     <use xlink:href="#DejaVuSans-32" transform="translate(127.246094 0)"/>
    </g>
   </g>
   <g id="text_33">
    <!-- RAFAELIA – mean_radius vs ToroidΔπφ angular span -->
    <g transform="translate(260.647446 20.88) scale(0.12 -0.12)">
     <defs>
      <path id="DejaVuSans-52" d="M 2841 2188 
Q 3044 2119 3236 1894 
Q 3428 1669 3622 1275 
L 4263 0 
L 3584 0 
L 2988 1197 
Q 2756 1666 2539 1819 
Q 2322 1972 1947 1972 
L 1259 1972 
L 1259 0 
L 628 0 
L 628 4666 
L 2053 4666 
Q 2853 4666 3247 4331 
Q 3641 3997 3641 3322 
Q 3641 2881 3436 2590 
Q 3231 2300 2841 2188 
z
M 1259 4147 
L 1259 2491 
L 2053 2491 
Q 2509 2491 2742 2702 
Q 2975 2913 2975 3322 
Q 2975 3731 2742 3939 
Q 2509 4147 2053 4147 
L 1259 4147 
z
" transform="scale(0.015625)"/>
      <path id="DejaVuSans-41" d="M 2188 4044 
L 1331 1722 
L 3047 1722 
L 2188 4044 
z
M 1831 4666 
L 2547 4666 
L 4325 0 
L 3669 0 
L 3244 1197 
L 1141 1197 
L 716 0 
L 50 0 
L 1831 4666 
z
" transform="scale(0.015625)"/>
      <path id="DejaVuSans-46" d="M 628 4666 
L 3309 4666 
L 3309 4134 
L 1259 4134 
L 1259 2759 
L 3109 2759 
L 3109 2228 
L 1259 2228 
L 1259 0 
L 628 0 
L 628 4666 
z
" transform="scale(0.015625)"/>
      <path id="DejaVuSans-45" d="M 628 4666 
L 3578 4666 
L 3578 4134 
L 1259 4134 
L 1259 2753 
L 3481 2753 
L 3481 2222 
L 1259 2222 
L 1259 531 
L 3634 531 
L 3634 0 
L 628 0 
L 628 4666 
z
" transform="scale(0.015625)"/>
      <path id="DejaVuSans-4c" d="M 628 4666 
L 1259 4666 
L 1259 531 
L 3531 531 
L 3531 0 
L 628 0 
L 628 4666 
z
" transform="scale(0.015625)"/>
      <path id="DejaVuSans-49" d="M 628 4666 
L 1259 4666 
L 1259 0 
L 628 0 
L 628 4666 
z
" transform="scale(0.015625)"/>
      <path id="DejaVuSans-2013" d="M 313 1978 
L 2888 1978 
L 2888 1528 
L 313 1528 
L 313 1978 
z
" transform="scale(0.015625)"/>
      <path id="DejaVuSans-54" d="M -19 4666 
L 3928 4666 
L 3928 4134 
L 2272 4134 
L 2272 0 
L 1638 0 
L 1638 4134 
L -19 4134 
L -19 4666 
z
" transform="scale(0.015625)"/>
      <path id="DejaVuSans-394" d="M 2188 4044 
L 906 525 
L 3472 525 
L 2188 4044 
z
M 50 0 
L 1831 4666 
L 2547 4666 
L 4325 0 
L 50 0 
z
" transform="scale(0.015625)"/>
      <path id="DejaVuSans-3c0" d="M 231 3500 
L 3584 3500 
L 3584 2925 
L 3144 2925 
L 3144 775 
Q 3144 550 3220 451 
Q 3297 353 3469 353 
Q 3516 353 3584 361 
Q 3653 369 3675 372 
L 3675 -44 
Q 3566 -84 3450 -103 
Q 3334 -122 3219 -122 
Q 2844 -122 2700 83 
Q 2556 288 2556 838 
L 2556 2925 
L 1266 2925 
L 1266 0 
L 678 0 
L 678 2925 
L 231 2925 
L 231 3500 
z
" transform="scale(0.015625)"/>
      <path id="DejaVuSans-3c6" d="M 2591 3034 
Q 2388 3034 2388 2581 
L 2388 438 
Q 2684 438 2981 763 
Q 3247 1053 3247 1750 
Q 3247 2400 2978 2750 
Q 2759 3034 2591 3034 
z
M 2591 3525 
Q 3028 3525 3425 3113 
Q 3853 2672 3853 1750 
Q 3853 903 3425 400 
Q 3022 -75 2388 -75 
L 2388 -1331 
L 1816 -1331 
L 1816 -78 
Q 1194 -78 775 400 
Q 350 888 350 1747 
Q 350 2641 775 3097 
Q 1094 3438 1613 3525 
L 1613 3016 
Q 1406 2944 1225 2700 
Q 956 2341 956 1747 
Q 956 1116 1225 756 
Q 1466 434 1816 434 
L 1816 2581 
Q 1816 3525 2591 3525 
z
" transform="scale(0.015625)"/>
     </defs>
     <use xlink:href="#DejaVuSans-52"/>
     <use xlink:href="#DejaVuSans-41" transform="translate(65.482422 0)"/>
     <use xlink:href="#DejaVuSans-46" transform="translate(133.890625 0)"/>
     <use xlink:href="#DejaVuSans-41" transform="translate(182.285156 0)"/>
     <use xlink:href="#DejaVuSans-45" transform="translate(250.693359 0)"/>
     <use xlink:href="#DejaVuSans-4c" transform="translate(313.876953 0)"/>
     <use xlink:href="#DejaVuSans-49" transform="translate(369.589844 0)"/>
     <use xlink:href="#DejaVuSans-41" transform="translate(399.082031 0)"/>
     <use xlink:href="#DejaVuSans-20" transform="translate(467.490234 0)"/>
     <use xlink:href="#DejaVuSans-2013" transform="translate(499.277344 0)"/>
     <use xlink:href="#DejaVuSans-20" transform="translate(549.277344 0)"/>
     <use xlink:href="#DejaVuSans-6d" transform="translate(581.064453 0)"/>
     <use xlink:href="#DejaVuSans-65" transform="translate(678.476562 0)"/>
     <use xlink:href="#DejaVuSans-61" transform="translate(740 0)"/>
     <use xlink:href="#DejaVuSans-6e" transform="translate(801.279297 0)"/>
     <use xlink:href="#DejaVuSans-5f" transform="translate(864.658203 0)"/>
     <use xlink:href="#DejaVuSans-72" transform="translate(914.658203 0)"/>
     <use xlink:href="#DejaVuSans-61" transform="translate(955.771484 0)"/>
     <use xlink:href="#DejaVuSans-64" transform="translate(1017.050781 0)"/>
     <use xlink:href="#DejaVuSans-69" transform="translate(1080.527344 0)"/>
     <use xlink:href="#DejaVuSans-75" transform="translate(1108.310547 0)"/>
     <use xlink:href="#DejaVuSans-73" transform="translate(1171.689453 0)"/>
     <use xlink:href="#DejaVuSans-20" transform="translate(1223.789062 0)"/>
     <use xlink:href="#DejaVuSans-76" transform="translate(1255.576172 0)"/>
     <use xlink:href="#DejaVuSans-73" transform="translate(1314.755859 0)"/>
     <use xlink:href="#DejaVuSans-20" transform="translate(1366.855469 0)"/>
     <use xlink:href="#DejaVuSans-54" transform="translate(1398.642578 0)"/>
     <use xlink:href="#DejaVuSans-6f" transform="translate(1442.726562 0)"/>
     <use xlink:href="#DejaVuSans-72" transform="translate(1503.908203 0)"/>
     <use xlink:href="#DejaVuSans-6f" transform="translate(1542.771484 0)"/>
     <use xlink:href="#DejaVuSans-69" transform="translate(1603.953125 0)"/>
     <use xlink:href="#DejaVuSans-64" transform="translate(1631.736328 0)"/>
     <use xlink:href="#DejaVuSans-394" transform="translate(1695.212891 0)"/>
     <use xlink:href="#DejaVuSans-3c0" transform="translate(1763.621094 0)"/>
     <use xlink:href="#DejaVuSans-3c6" transform="translate(1823.826172 0)"/>
     <use xlink:href="#DejaVuSans-20" transform="translate(1889.792969 0)"/>
     <use xlink:href="#DejaVuSans-61" transform="translate(1921.580078 0)"/>
     <use xlink:href="#DejaVuSans-6e" transform="translate(1982.859375 0)"/>
     <use xlink:href="#DejaVuSans-67" transform="translate(2046.238281 0)"/>
     <use xlink:href="#DejaVuSans-75" transform="translate(2109.714844 0)"/>
     <use xlink:href="#DejaVuSans-6c" transform="translate(2173.09375 0)"/>
     <use xlink:href="#DejaVuSans-61" transform="translate(2200.876953 0)"/>
     <use xlink:href="#DejaVuSans-72" transform="translate(2262.15625 0)"/>
     <use xlink:href="#DejaVuSans-20" transform="translate(2303.269531 0)"/>
     <use xlink:href="#DejaVuSans-73" transform="translate(2335.056641 0)"/>
     <use xlink:href="#DejaVuSans-70" transform="translate(2387.15625 0)"/>
     <use xlink:href="#DejaVuSans-61" transform="translate(2450.632812 0)"/>
     <use xlink:href="#DejaVuSans-6e" transform="translate(2511.912109 0)"/>
    </g>
   </g>
   <g id="legend_1">
    <g id="patch_7">
     <path d="M 61.21125 456.68 
L 214.769063 456.68 
Q 216.769063 456.68 216.769063 454.68 
L 216.769063 411.645625 
Q 216.769063 409.645625 214.769063 409.645625 
L 61.21125 409.645625 
Q 59.21125 409.645625 59.21125 411.645625 
L 59.21125 454.68 
Q 59.21125 456.68 61.21125 456.68 
z
" style="fill: #ffffff; opacity: 0.8; stroke: #cccccc; stroke-linejoin: miter"/>
    </g>
    <g id="PathCollection_4">
     <g>
      <use xlink:href="#mdaccd6d610" x="73.21125" y="418.619062" style="fill: #1f77b4; fill-opacity: 0.9; stroke: #000000; stroke-opacity: 0.9; stroke-width: 0.5"/>
     </g>
    </g>
    <g id="text_34">
     <!-- family low (≈ 47–81) -->
     <g transform="translate(91.21125 421.244062) scale(0.1 -0.1)">
      <defs>
       <path id="DejaVuSans-66" d="M 2375 4863 
L 2375 4384 
L 1825 4384 
Q 1516 4384 1395 4259 
Q 1275 4134 1275 3809 
L 1275 3500 
L 2222 3500 
L 2222 3053 
L 1275 3053 
L 1275 0 
L 697 0 
L 697 3053 
L 147 3053 
L 147 3500 
L 697 3500 
L 697 3744 
Q 697 4328 969 4595 
Q 1241 4863 1831 4863 
L 2375 4863 
z
" transform="scale(0.015625)"/>
       <path id="DejaVuSans-77" d="M 269 3500 
L 844 3500 
L 1563 769 
L 2278 3500 
L 2956 3500 
L 3675 769 
L 4391 3500 
L 4966 3500 
L 4050 0 
L 3372 0 
L 2619 2869 
L 1863 0 
L 1184 0 
L 269 3500 
z
" transform="scale(0.015625)"/>
       <path id="DejaVuSans-2248" d="M 4684 1947 
L 4684 1388 
Q 4356 1144 4076 1036 
Q 3797 928 3494 928 
Q 3150 928 2694 1113 
Q 2663 1125 2641 1134 
Q 2622 1141 2575 1159 
Q 2091 1350 1797 1350 
Q 1522 1350 1253 1231 
Q 984 1113 678 850 
L 678 1409 
Q 1006 1653 1286 1761 
Q 1566 1869 1869 1869 
Q 2213 1869 2672 1684 
Q 2706 1669 2722 1663 
Q 2741 1656 2788 1638 
Q 3272 1447 3566 1447 
Q 3834 1447 4098 1564 
Q 4363 1681 4684 1947 
z
M 4684 3163 
L 4684 2606 
Q 4356 2359 4076 2251 
Q 3797 2144 3494 2144 
Q 3150 2144 2694 2328 
Q 2663 2341 2641 2350 
Q 2622 2356 2575 2375 
Q 2091 2566 1797 2566 
Q 1522 2566 1253 2447 
Q 984 2328 678 2069 
L 678 2625 
Q 1006 2869 1286 2976 
Q 1566 3084 1869 3084 
Q 2213 3084 2672 2900 
Q 2703 2888 2719 2881 
Q 2741 2872 2788 2853 
Q 3272 2663 3566 2663 
Q 3834 2663 4098 2780 
Q 4363 2897 4684 3163 
z
" transform="scale(0.015625)"/>
      </defs>
      <use xlink:href="#DejaVuSans-66"/>
      <use xlink:href="#DejaVuSans-61" transform="translate(35.205078 0)"/>
      <use xlink:href="#DejaVuSans-6d" transform="translate(96.484375 0)"/>
      <use xlink:href="#DejaVuSans-69" transform="translate(193.896484 0)"/>
      <use xlink:href="#DejaVuSans-6c" transform="translate(221.679688 0)"/>
      <use xlink:href="#DejaVuSans-79" transform="translate(249.462891 0)"/>
      <use xlink:href="#DejaVuSans-20" transform="translate(308.642578 0)"/>
      <use xlink:href="#DejaVuSans-6c" transform="translate(340.429688 0)"/>
      <use xlink:href="#DejaVuSans-6f" transform="translate(368.212891 0)"/>
      <use xlink:href="#DejaVuSans-77" transform="translate(429.394531 0)"/>
      <use xlink:href="#DejaVuSans-20" transform="translate(511.181641 0)"/>
      <use xlink:href="#DejaVuSans-28" transform="translate(542.96875 0)"/>
      <use xlink:href="#DejaVuSans-2248" transform="translate(581.982422 0)"/>
      <use xlink:href="#DejaVuSans-20" transform="translate(665.771484 0)"/>
      <use xlink:href="#DejaVuSans-34" transform="translate(697.558594 0)"/>
      <use xlink:href="#DejaVuSans-37" transform="translate(761.181641 0)"/>
      <use xlink:href="#DejaVuSans-2013" transform="translate(824.804688 0)"/>
      <use xlink:href="#DejaVuSans-38" transform="translate(874.804688 0)"/>
      <use xlink:href="#DejaVuSans-31" transform="translate(938.427734 0)"/>
      <use xlink:href="#DejaVuSans-29" transform="translate(1002.050781 0)"/>
     </g>
    </g>
    <g id="PathCollection_5">
     <g>
      <use xlink:href="#m2acc4f0723" x="73.21125" y="433.297187" style="fill: #ff7f0e; fill-opacity: 0.9; stroke: #000000; stroke-opacity: 0.9; stroke-width: 0.5"/>
     </g>
    </g>
    <g id="text_35">
     <!-- family mid (≈ 94–107) -->
     <g transform="translate(91.21125 435.922187) scale(0.1 -0.1)">
      <use xlink:href="#DejaVuSans-66"/>
      <use xlink:href="#DejaVuSans-61" transform="translate(35.205078 0)"/>
      <use xlink:href="#DejaVuSans-6d" transform="translate(96.484375 0)"/>
      <use xlink:href="#DejaVuSans-69" transform="translate(193.896484 0)"/>
      <use xlink:href="#DejaVuSans-6c" transform="translate(221.679688 0)"/>
      <use xlink:href="#DejaVuSans-79" transform="translate(249.462891 0)"/>
      <use xlink:href="#DejaVuSans-20" transform="translate(308.642578 0)"/>
      <use xlink:href="#DejaVuSans-6d" transform="translate(340.429688 0)"/>
      <use xlink:href="#DejaVuSans-69" transform="translate(437.841797 0)"/>
      <use xlink:href="#DejaVuSans-64" transform="translate(465.625 0)"/>
      <use xlink:href="#DejaVuSans-20" transform="translate(529.101562 0)"/>
      <use xlink:href="#DejaVuSans-28" transform="translate(560.888672 0)"/>
      <use xlink:href="#DejaVuSans-2248" transform="translate(599.902344 0)"/>
      <use xlink:href="#DejaVuSans-20" transform="translate(683.691406 0)"/>
      <use xlink:href="#DejaVuSans-39" transform="translate(715.478516 0)"/>
      <use xlink:href="#DejaVuSans-34" transform="translate(779.101562 0)"/>
      <use xlink:href="#DejaVuSans-2013" transform="translate(842.724609 0)"/>
      <use xlink:href="#DejaVuSans-31" transform="translate(892.724609 0)"/>
      <use xlink:href="#DejaVuSans-30" transform="translate(956.347656 0)"/>
      <use xlink:href="#DejaVuSans-37" transform="translate(1019.970703 0)"/>
      <use xlink:href="#DejaVuSans-29" transform="translate(1083.59375 0)"/>
     </g>
    </g>
    <g id="PathCollection_6">
     <g>
      <use xlink:href="#mb64ecc8650" x="73.21125" y="447.975312" style="fill: #2ca02c; fill-opacity: 0.9; stroke: #000000; stroke-opacity: 0.9; stroke-width: 0.5"/>
     </g>
    </g>
    <g id="text_36">
     <!-- family high (≈ 115–122) -->
     <g transform="translate(91.21125 450.600312) scale(0.1 -0.1)">
      <use xlink:href="#DejaVuSans-66"/>
      <use xlink:href="#DejaVuSans-61" transform="translate(35.205078 0)"/>
      <use xlink:href="#DejaVuSans-6d" transform="translate(96.484375 0)"/>
      <use xlink:href="#DejaVuSans-69" transform="translate(193.896484 0)"/>
      <use xlink:href="#DejaVuSans-6c" transform="translate(221.679688 0)"/>
      <use xlink:href="#DejaVuSans-79" transform="translate(249.462891 0)"/>
      <use xlink:href="#DejaVuSans-20" transform="translate(308.642578 0)"/>
      <use xlink:href="#DejaVuSans-68" transform="translate(340.429688 0)"/>
      <use xlink:href="#DejaVuSans-69" transform="translate(403.808594 0)"/>
      <use xlink:href="#DejaVuSans-67" transform="translate(431.591797 0)"/>
      <use xlink:href="#DejaVuSans-68" transform="translate(495.068359 0)"/>
      <use xlink:href="#DejaVuSans-20" transform="translate(558.447266 0)"/>
      <use xlink:href="#DejaVuSans-28" transform="translate(590.234375 0)"/>
      <use xlink:href="#DejaVuSans-2248" transform="translate(629.248047 0)"/>
      <use xlink:href="#DejaVuSans-20" transform="translate(713.037109 0)"/>
      <use xlink:href="#DejaVuSans-31" transform="translate(744.824219 0)"/>
      <use xlink:href="#DejaVuSans-31" transform="translate(808.447266 0)"/>
      <use xlink:href="#DejaVuSans-35" transform="translate(872.070312 0)"/>
      <use xlink:href="#DejaVuSans-2013" transform="translate(935.693359 0)"/>
      <use xlink:href="#DejaVuSans-31" transform="translate(985.693359 0)"/>
      <use xlink:href="#DejaVuSans-32" transform="translate(1049.316406 0)"/>
      <use xlink:href="#DejaVuSans-32" transform="translate(1112.939453 0)"/>
      <use xlink:href="#DejaVuSans-29" transform="translate(1176.5625 0)"/>
     </g>
    </g>
   </g>
  </g>
 </g>
 <defs>
  <clipPath id="pf864e4e24a">
   <rect x="54.21125" y="26.88" width="721.904267" height="434.8"/>
  </clipPath>
 </defs>
</svg>
